{
  "accessors": [
    {
      "bufferView": 2,
      "componentType": 5126,
      "count": 11266,
      "max": [
        9.37159252166748,
        15.644083023071289,
        14.015785217285156
      ],
      "min": [
        -10.582334518432617,
        -11.513590812683105,
        -0.600443422794342
      ],
      "type": "VEC3"
    },
    {
      "bufferView": 2,
      "byteOffset": 135192,
      "componentType": 5126,
      "count": 11266,
      "max": [
        0.9999167323112488,
        0.9992044568061829,
        0.9989066123962402
      ],
      "min": [
        -0.9999417066574097,
        -0.999874472618103,
        -0.9994174242019653
      ],
      "type": "VEC3"
    },
    {
      "bufferView": 3,
      "componentType": 5126,
      "count": 11266,
      "max": [
        0.9946487545967102,
        0.9999071955680847,
        0.9955892562866211,
        1.0
      ],
      "min": [
        -0.998073399066925,
        -0.9999115467071533,
        -0.9999905228614807,
        -1.0
      ],
      "type": "VEC4"
    },
    {
      "bufferView": 1,
      "componentType": 5126,
      "count": 11266,
      "max": [
        0.9961506724357605,
        0.9979218244552612
      ],
      "min": [
        0.005906141363084316,
        -0.000455679401056841
      ],
      "type": "VEC2"
    },
    {
      "bufferView": 0,
      "componentType": 5125,
      "count": 16950,
      "type": "SCALAR"
    }
  ],
  "asset": {
    "extras": {
      "author": "jadenmercado57 (https://sketchfab.com/jadenmercado57)",
      "license": "CC-BY-4.0 (http://creativecommons.org/licenses/by/4.0/)",
      "source": "https://sketchfab.com/3d-models/dragon-fruit-prop-3ffdae7771cc43128b9e2b38d332c73a",
      "title": "Dragon fruit Prop"
    },
    "generator": "Sketchfab-16.45.0",
    "version": "2.0"
  },
  "bufferViews": [
    {
      "buffer": 0,
      "byteLength": 67800,
      "name": "floatBufferViews",
      "target": 34963
    },
    {
      "buffer": 0,
      "byteLength": 90128,
      "byteOffset": 67800,
      "byteStride": 8,
      "name": "floatBufferViews",
      "target": 34962
    },
    {
      "buffer": 0,
      "byteLength": 270384,
      "byteOffset": 157928,
      "byteStride": 12,
      "name": "floatBufferViews",
      "target": 34962
    },
    {
      "buffer": 0,
      "byteLength": 180256,
      "byteOffset": 428312,
      "byteStride": 16,
      "name": "floatBufferViews",
      "target": 34962
    }
  ],
  "buffers": [
    {
      "byteLength": 608568,
      "uri": "scene.bin"
    }
  ],
  "extensionsUsed": [
    "KHR_materials_specular"
  ],
  "images": [
    {
      "uri": "textures/Scene_-_Root_baseColor.png"
    },
    {
      "uri": "textures/Scene_-_Root_metallicRoughness.png"
    },
    {
      "uri": "textures/Scene_-_Root_emissive.png"
    },
    {
      "uri": "textures/Scene_-_Root_normal.png"
    }
  ],
  "materials": [
    {
      "doubleSided": true,
      "emissiveFactor": [
        1.0,
        1.0,
        1.0
      ],
      "emissiveTexture": {
        "index": 2
      },
      "extensions": {
        "KHR_materials_specular": {
          "specularColorFactor": [
            1.0,
            1.0,
            1.0
          ],
          "specularFactor": 0.19496194897406638
        }
      },
      "name": "Scene_-_Root",
      "normalTexture": {
        "index": 3
      },
      "pbrMetallicRoughness": {
        "baseColorTexture": {
          "index": 0
        },
        "metallicRoughnessTexture": {
          "index": 1
        }
      }
    }
  ],
  "meshes": [
    {
      "name": "LP_DragonFruit__0",
      "primitives": [
        {
          "attributes": {
            "NORMAL": 1,
            "POSITION": 0,
            "TANGENT": 2,
            "TEXCOORD_0": 3
          },
          "indices": 4,
          "material": 0,
          "mode": 4
        }
      ]
    }
  ],
  "nodes": [
    {
      "children": [
        1
      ],
      "matrix": [
        1.0,
        0.0,
        0.0,
        0.0,
        0.0,
        2.220446049250313e-16,
        -1.0,
        0.0,
        0.0,
        1.0,
        2.220446049250313e-16,
        0.0,
        0.0,
        0.0,
        0.0,
        1.0
      ],
      "name": "Sketchfab_model"
    },
    {
      "children": [
        2
      ],
      "matrix": [
        0.009999999776482582,
        0.0,
        0.0,
        0.0,
        0.0,
        0.0,
        0.009999999776482582,
        0.0,
        0.0,
        -0.009999999776482582,
        0.0,
        0.0,
        0.0,
        0.0,
        0.0,
        1.0
      ],
      "name": "22f9d73f2b424ccd91d81dbe910c4cb1.fbx"
    },
    {
      "children": [
        3
      ],
      "name": "RootNode"
    },
    {
      "children": [
        4
      ],
      "matrix": [
        -35.55826219472529,
        3.4698681483646965e-06,
        93.46448517854876,
        0.0,
        93.46448517853378,
        5.803392597591994e-05,
        35.55826219471743,
        0.0,
        -5.300728533330634e-05,
        99.9999999999831,
        -2.3878949972910846e-05,
        0.0,
        0.0,
        -2.513599395751953,
        -167.9608154296875,
        1.0
      ],
      "name": "LP_DragonFruit"
    },
    {
      "mesh": 0,
      "name": "LP_DragonFruit__0"
    }
  ],
  "samplers": [
    {
      "magFilter": 9729,
      "minFilter": 9987,
      "wrapS": 10497,
      "wrapT": 10497
    }
  ],
  "scene": 0,
  "scenes": [
    {
      "name": "Sketchfab_Scene",
      "nodes": [
        0
      ]
    }
  ],
  "textures": [
    {
      "sampler": 0,
      "source": 0
    },
    {
      "sampler": 0,
      "source": 1
    },
    {
      "sampler": 0,
      "source": 2
    },
    {
      "sampler": 0,
      "source": 3
    }
  ]
}
